<svg version="1.1" id="Layer_1" xmlns="http://www.w3.org/2000/svg" xmlns:xlink="http://www.w3.org/1999/xlink" x="0px" y="0px"
	 width="100%" viewBox="0 0 192 192" enable-background="new 0 0 192 192" xml:space="preserve">
<path fill="#FEFEFE" opacity="1.000000" stroke="none" 
	d="
M108.000000,193.000000 
	C72.023125,193.000000 36.546246,193.000000 1.034685,193.000000 
	C1.034685,129.064819 1.034685,65.129631 1.034685,1.097215 
	C64.893372,1.097215 128.786942,1.097215 192.840256,1.097215 
	C192.840256,64.999680 192.840256,128.999802 192.840256,193.000000 
	C164.796585,193.000000 136.648300,193.000000 108.000000,193.000000 
M156.582138,170.200775 
	C162.004761,170.851974 167.427383,171.503189 173.766113,172.264404 
	C160.183929,137.876953 147.179657,104.952705 133.930115,71.407463 
	C136.698898,71.407463 138.602234,71.768852 140.303665,71.336243 
	C144.545166,70.257812 149.741669,69.972389 152.682846,67.304733 
	C161.122314,59.650135 168.633621,50.972218 177.289230,41.877495 
	C174.655334,41.877495 173.067398,41.877510 171.479446,41.877491 
	C156.651855,41.877335 141.818695,41.650078 126.999985,42.012783 
	C122.442451,42.124332 120.056183,40.721146 118.352997,36.652435 
	C116.756310,32.838165 113.894196,29.503466 112.605659,25.620356 
	C109.529419,16.349827 103.464867,13.354832 94.128944,14.837800 
	C91.489586,15.257051 90.040459,15.900980 88.840195,18.240419 
	C85.350922,25.041363 81.504166,31.659491 78.042709,38.473820 
	C76.744339,41.029831 75.239555,41.987732 72.294838,41.955723 
	C56.802670,41.787312 41.307686,41.877502 25.813679,41.877903 
	C24.242334,41.877941 22.670990,41.877907 20.031691,41.877907 
	C25.142542,47.305058 29.485653,51.820633 33.720890,56.435215 
	C41.512856,64.925087 48.528500,74.798386 63.427608,70.719559 
	C49.861145,104.984253 36.820480,137.920944 23.663568,171.151230 
	C33.288490,172.017197 41.344433,170.815964 49.055035,164.957214 
	C55.603600,159.981430 63.642975,156.967682 72.126602,152.505142 
	C71.208542,161.821136 70.472404,169.291031 69.618614,177.954849 
	C79.812477,170.060623 91.253128,166.166229 97.845398,157.813766 
	C107.597305,164.444305 117.271667,171.022110 128.009094,178.322708 
	C126.897766,169.538193 125.994026,162.394531 124.991920,154.473358 
	C127.812759,155.175064 130.230576,155.288651 132.135635,156.335403 
	C140.119644,160.722366 147.950073,165.388885 156.582138,170.200775 
z"/>
<path fill="#080504" opacity="1.000000" stroke="none" 
	d="
M156.209442,170.076889 
	C147.950073,165.388885 140.119644,160.722366 132.135635,156.335403 
	C130.230576,155.288651 127.812759,155.175064 124.991920,154.473358 
	C125.994026,162.394531 126.897766,169.538193 128.009094,178.322708 
	C117.271667,171.022110 107.597305,164.444305 97.845398,157.813766 
	C91.253128,166.166229 79.812477,170.060623 69.618614,177.954849 
	C70.472404,169.291031 71.208542,161.821136 72.126602,152.505142 
	C63.642975,156.967682 55.603600,159.981430 49.055035,164.957214 
	C41.344433,170.815964 33.288490,172.017197 23.663568,171.151230 
	C36.820480,137.920944 49.861145,104.984253 63.427608,70.719559 
	C48.528500,74.798386 41.512856,64.925087 33.720890,56.435215 
	C29.485653,51.820633 25.142542,47.305058 20.031691,41.877907 
	C22.670990,41.877907 24.242334,41.877941 25.813679,41.877903 
	C41.307686,41.877502 56.802670,41.787312 72.294838,41.955723 
	C75.239555,41.987732 76.744339,41.029831 78.042709,38.473820 
	C81.504166,31.659491 85.350922,25.041363 88.840195,18.240419 
	C90.040459,15.900980 91.489586,15.257051 94.128944,14.837800 
	C103.464867,13.354832 109.529419,16.349827 112.605659,25.620356 
	C113.894196,29.503466 116.756310,32.838165 118.352997,36.652435 
	C120.056183,40.721146 122.442451,42.124332 126.999985,42.012783 
	C141.818695,41.650078 156.651855,41.877335 171.479446,41.877491 
	C173.067398,41.877510 174.655334,41.877495 177.289230,41.877495 
	C168.633621,50.972218 161.122314,59.650135 152.682846,67.304733 
	C149.741669,69.972389 144.545166,70.257812 140.303665,71.336243 
	C138.602234,71.768852 136.698898,71.407463 133.930115,71.407463 
	C147.179657,104.952705 160.183929,137.876953 173.766113,172.264404 
	C167.427383,171.503189 162.004761,170.851974 156.209442,170.076889 
M104.070831,127.782135 
	C104.101860,128.532211 104.132896,129.282272 104.075005,130.834854 
	C104.145821,131.905533 104.216637,132.976212 104.142365,134.872238 
	C104.186562,136.262756 104.230766,137.653259 104.141258,139.782852 
	C104.189423,140.528046 104.237595,141.273239 104.126259,142.913162 
	C103.940567,154.902954 108.418312,160.882095 120.026833,163.719788 
	C119.038933,156.382935 118.069916,149.186386 117.197121,141.245941 
	C117.090981,140.505325 116.984840,139.764725 116.992348,138.272568 
	C116.713387,136.824387 116.434425,135.376221 116.194801,133.144745 
	C116.072403,132.107361 115.950005,131.069962 115.779694,129.465088 
	C115.475372,128.985092 115.171043,128.505112 114.968681,127.277634 
	C114.960159,126.523788 114.951637,125.769943 115.062309,124.271088 
	C115.033684,123.518433 115.005051,122.765785 115.002731,121.185936 
	C115.007729,114.920624 110.239830,117.332855 107.165398,117.029236 
	C103.031746,116.621010 104.171127,119.782730 104.074127,122.809700 
	C104.124519,123.556435 104.174904,124.303177 104.121384,125.710686 
	C104.151360,126.154526 104.181335,126.598373 104.070831,127.782135 
M68.395065,76.376305 
	C67.900375,77.901390 67.405685,79.426476 66.439285,81.431503 
	C65.897293,82.919800 65.355309,84.408104 64.342468,86.319710 
	C64.185989,87.138260 64.029510,87.956810 63.406582,89.257332 
	C62.933552,90.503113 62.460522,91.748901 61.549412,93.380104 
	C61.427544,93.934273 61.305672,94.488441 60.903427,95.671341 
	C60.488354,96.738609 60.073280,97.805870 59.192310,99.352280 
	C58.998791,100.222466 58.805271,101.092659 58.623695,102.029922 
	C58.623695,102.029922 58.619884,102.097946 58.151379,102.634750 
	C57.760582,103.734955 57.369789,104.835152 56.466030,106.421486 
	C55.837021,108.223328 55.208008,110.025169 54.176098,112.384819 
	C47.288101,129.657074 40.400105,146.929321 33.512108,164.201569 
	C33.932690,164.521484 34.353268,164.841385 34.773846,165.161285 
	C37.259007,163.977509 39.800732,162.898315 42.218815,161.590500 
	C49.783077,157.499390 57.342121,153.394150 64.798096,149.111435 
	C66.136131,148.342850 67.687279,146.828659 67.929153,145.446793 
	C69.702682,135.314346 71.167770,125.127892 72.974365,114.235214 
	C73.354485,112.512138 73.734604,110.789062 74.027870,109.037666 
	C74.027870,109.037666 74.013542,109.127892 74.951431,109.116524 
	C90.967918,109.092751 106.984413,109.068970 123.172867,109.253906 
	C123.172867,109.253906 123.442848,109.238380 123.617165,109.989861 
	C123.809242,110.998360 124.001320,112.006859 124.133087,113.826065 
	C125.763382,124.180367 127.291504,134.552902 129.132812,144.869553 
	C129.412903,146.438858 130.843170,148.263748 132.256332,149.093033 
	C139.826218,153.535324 147.526093,157.761200 155.255112,161.924347 
	C157.759552,163.273331 160.488174,164.206192 163.114243,165.329391 
	C163.373352,164.968597 163.632462,164.607803 163.891571,164.247009 
	C156.863251,146.850403 149.834946,129.453796 142.739136,111.408142 
	C142.180008,110.261490 141.620865,109.114830 141.025070,107.321419 
	C140.654648,106.550812 140.284210,105.780212 139.897293,104.335579 
	C139.308594,103.139427 138.719894,101.943283 137.972031,100.324150 
	C137.751938,100.100136 137.486053,99.968826 137.115982,99.187164 
	C136.433960,97.738396 135.751953,96.289635 135.052231,94.416466 
	C135.052231,94.416466 134.975937,93.998322 135.101532,93.335510 
	C134.811783,92.526321 134.522049,91.717133 134.142227,90.257553 
	C133.773956,89.498306 133.405685,88.739067 132.999420,87.340668 
	C132.673645,86.557739 132.347870,85.774818 131.956543,84.270210 
	C130.687057,81.738358 129.417572,79.206497 128.101303,75.921204 
	C127.763977,70.998268 124.680901,71.747444 121.137833,72.484383 
	C121.137833,74.498634 121.137833,76.279564 121.070770,78.931610 
	C121.101654,80.970078 121.132538,83.008553 121.066589,85.865211 
	C121.099022,87.236710 121.131462,88.608215 121.088623,90.496216 
	C121.120667,90.667091 121.152710,90.837959 121.062065,91.764534 
	C121.121895,92.523705 121.181732,93.282883 120.689163,94.746643 
	C105.832138,94.812019 90.975113,94.877388 76.129662,94.120064 
	C76.074196,92.749046 76.018738,91.378021 76.071739,89.211693 
	C76.038864,88.143501 76.005989,87.075317 76.065811,85.177399 
	C76.033524,83.787926 76.001228,82.398453 76.037903,80.210175 
	C76.018852,79.142212 75.999802,78.074257 76.026810,76.158218 
	C75.158745,74.763885 74.564461,72.534187 73.367935,72.142029 
	C70.518661,71.208183 69.362297,73.405396 68.395065,76.376305 
M82.984207,73.763062 
	C83.039650,74.828857 83.095100,75.894661 82.993378,77.694939 
	C83.274414,79.123917 83.555450,80.552895 83.258873,82.537025 
	C83.258873,84.465591 83.258873,86.394150 83.258873,88.472015 
	C86.630821,88.472015 89.648682,88.472015 93.192650,88.472015 
	C93.084213,86.034325 92.994621,84.020317 93.096153,81.209328 
	C93.095047,80.120819 93.093948,79.032318 93.104897,77.497612 
	C93.104897,77.497612 93.048798,77.053932 93.200050,76.257629 
	C93.174034,75.181496 93.148018,74.105354 93.264412,72.281601 
	C93.212265,71.527893 93.160118,70.774185 93.286377,69.094185 
	C93.286377,62.325478 93.286377,55.556770 93.286377,48.523926 
	C74.016365,48.523926 55.216343,48.523926 35.363552,48.523926 
	C39.139420,52.509464 42.470730,55.675335 45.382744,59.188725 
	C48.972694,63.520054 53.272060,65.242882 58.910210,64.987152 
	C66.816650,64.628532 74.751526,64.896599 82.676804,64.896599 
	C82.875900,67.021637 83.014389,68.499786 82.984406,70.716789 
	C83.037086,71.469810 83.089775,72.222832 82.984207,73.763062 
M104.084625,78.713394 
	C104.122643,79.777763 104.160660,80.842140 104.053642,82.755547 
	C104.122696,88.953537 105.453270,89.742996 113.993767,88.242157 
	C113.993767,86.238647 113.993767,84.119446 114.149712,81.217628 
	C114.136345,80.158760 114.122978,79.099884 114.221329,77.188896 
	C114.195503,75.478157 114.169678,73.767418 114.282265,71.213623 
	C114.423080,69.248268 114.563889,67.282906 114.734367,64.903549 
	C123.572029,64.903549 132.043671,65.050980 140.504517,64.813881 
	C143.049316,64.742569 146.200897,64.337845 147.970291,62.808411 
	C152.792267,58.640381 157.024536,53.790127 162.024460,48.662548 
	C142.109085,48.662548 123.236420,48.662548 104.253136,48.662548 
	C104.253136,56.647472 104.253136,64.290001 104.069221,72.775642 
	C104.134583,74.494049 104.199936,76.212463 104.084625,78.713394 
M93.095833,122.085411 
	C92.501953,120.421410 92.349037,117.752357 91.238792,117.265244 
	C86.091774,115.006958 82.704575,117.386360 82.079849,123.861336 
	C82.064911,124.913162 82.049980,125.964981 81.878029,127.784584 
	C81.626030,129.869980 81.374031,131.955383 80.974571,134.835342 
	C80.907898,136.174835 80.841225,137.514343 80.443375,139.588699 
	C79.523010,147.652344 78.602654,155.715973 77.611023,164.404083 
	C93.114265,156.762558 94.228828,154.914291 93.305412,139.120605 
	C93.243591,137.394592 93.181770,135.668594 93.251663,133.078308 
	C93.189865,131.040771 93.128067,129.003235 93.141411,126.168549 
	C93.116745,125.097580 93.092072,124.026611 93.095833,122.085411 
M87.648315,34.162495 
	C86.370956,36.551384 85.093590,38.940269 83.785538,41.386547 
	C89.401299,42.895279 92.650185,41.449612 94.857376,36.619759 
	C96.716110,32.552441 100.705620,32.653015 102.587173,36.879517 
	C104.803658,41.858345 108.113045,42.830719 113.414978,41.289570 
	C110.428505,35.742966 107.499580,30.397028 104.667282,25.000387 
	C103.398918,22.583647 102.277260,20.679932 98.821442,20.766275 
	C95.608910,20.846539 94.027679,22.084467 92.767601,24.737268 
	C91.341187,27.740252 89.616280,30.601446 87.648315,34.162495 
z"/>
<path fill="#FA5001" opacity="1.000000" stroke="none" 
	d="
M142.806625,112.057190 
	C149.834946,129.453796 156.863251,146.850403 163.891571,164.247009 
	C163.632462,164.607803 163.373352,164.968597 163.114243,165.329391 
	C160.488174,164.206192 157.759552,163.273331 155.255112,161.924347 
	C147.526093,157.761200 139.826218,153.535324 132.256332,149.093033 
	C130.843170,148.263748 129.412903,146.438858 129.132812,144.869553 
	C127.291504,134.552902 125.763382,124.180367 124.617744,113.417145 
	C131.003815,112.691216 136.905212,112.374207 142.806625,112.057190 
z"/>
<path fill="#FA5001" opacity="1.000000" stroke="none" 
	d="
M72.730103,114.958466 
	C71.167770,125.127892 69.702682,135.314346 67.929153,145.446793 
	C67.687279,146.828659 66.136131,148.342850 64.798096,149.111435 
	C57.342121,153.394150 49.783077,157.499390 42.218815,161.590500 
	C39.800732,162.898315 37.259007,163.977509 34.773846,165.161285 
	C34.353268,164.841385 33.932690,164.521484 33.512108,164.201569 
	C40.400105,146.929321 47.288101,129.657074 54.822266,112.189651 
	C59.515194,112.329803 63.582565,112.515579 67.599197,113.069374 
	C69.362793,113.312523 71.022964,114.305794 72.730103,114.958466 
z"/>
<path fill="#F44E02" opacity="1.000000" stroke="none" 
	d="
M104.253136,71.932533 
	C104.253136,64.290001 104.253136,56.647472 104.253136,48.662548 
	C123.236420,48.662548 142.109085,48.662548 162.024460,48.662548 
	C157.024536,53.790127 152.792267,58.640381 147.970291,62.808411 
	C146.200897,64.337845 143.049316,64.742569 140.504517,64.813881 
	C132.043671,65.050980 123.572029,64.903549 114.734367,64.903549 
	C114.563889,67.282906 114.423080,69.248268 113.753159,71.617928 
	C110.233742,71.992332 107.243439,71.962433 104.253136,71.932533 
z"/>
<path fill="#F64F01" opacity="1.000000" stroke="none" 
	d="
M83.152878,69.977928 
	C83.014389,68.499786 82.875900,67.021637 82.676804,64.896599 
	C74.751526,64.896599 66.816650,64.628532 58.910210,64.987152 
	C53.272060,65.242882 48.972694,63.520054 45.382744,59.188725 
	C42.470730,55.675335 39.139420,52.509464 35.363552,48.523926 
	C55.216343,48.523926 74.016365,48.523926 93.286377,48.523926 
	C93.286377,55.556770 93.286377,62.325478 92.738190,69.550385 
	C89.177620,69.997040 86.165253,69.987488 83.152878,69.977928 
z"/>
<path fill="#B93700" opacity="1.000000" stroke="none" 
	d="
M59.658207,98.873138 
	C60.073280,97.805870 60.488354,96.738609 61.344791,95.345871 
	C62.188374,95.005165 62.590591,94.989937 63.387955,95.029648 
	C67.894760,95.037308 72.006424,94.990028 76.118088,94.942764 
	C90.975113,94.877388 105.832138,94.812019 121.309425,94.385193 
	C122.620811,94.015823 123.311928,94.007912 124.091080,94.389687 
	C127.809380,94.799873 131.439651,94.820366 135.069931,94.840866 
	C135.751953,96.289635 136.433960,97.738396 136.663559,99.580215 
	C113.629364,99.982079 91.047447,100.031830 68.466011,99.949654 
	C65.528809,99.938965 62.594082,99.248650 59.658207,98.873138 
z"/>
<path fill="#F54F03" opacity="1.000000" stroke="none" 
	d="
M87.834740,33.843391 
	C89.616280,30.601446 91.341187,27.740252 92.767601,24.737268 
	C94.027679,22.084467 95.608910,20.846539 98.821442,20.766275 
	C102.277260,20.679932 103.398918,22.583647 104.667282,25.000387 
	C107.499580,30.397028 110.428505,35.742966 113.414978,41.289570 
	C108.113045,42.830719 104.803658,41.858345 102.587173,36.879517 
	C100.705620,32.653015 96.716110,32.552441 94.857376,36.619759 
	C92.650185,41.449612 89.401299,42.895279 83.785538,41.386547 
	C85.093590,38.940269 86.370956,36.551384 87.834740,33.843391 
z"/>
<path fill="#F54F02" opacity="1.000000" stroke="none" 
	d="
M93.122261,139.963181 
	C94.228828,154.914291 93.114265,156.762558 77.611023,164.404083 
	C78.602654,155.715973 79.523010,147.652344 81.003815,139.400970 
	C85.416924,139.463226 89.269592,139.713211 93.122261,139.963181 
z"/>
<path fill="#F54F02" opacity="1.000000" stroke="none" 
	d="
M117.100906,141.989838 
	C118.069916,149.186386 119.038933,156.382935 120.026833,163.719788 
	C108.418312,160.882095 103.940567,154.902954 104.650345,142.461151 
	C109.149925,142.002701 113.125420,141.996262 117.100906,141.989838 
z"/>
<path fill="#D94301" opacity="1.000000" stroke="none" 
	d="
M56.978996,105.935349 
	C57.369789,104.835152 57.760582,103.734955 58.518600,102.844864 
	C60.726349,103.703346 62.563976,104.906586 64.407860,104.916237 
	C89.273323,105.046455 114.139664,105.010574 138.911575,105.408905 
	C137.147552,106.201416 135.497208,106.759392 133.803879,106.967461 
	C130.214249,107.408554 126.602211,107.667282 122.530746,108.000435 
	C107.745293,107.999954 93.428223,107.962257 79.111923,108.049400 
	C77.410332,108.059753 75.712898,108.751816 74.013542,109.127884 
	C74.013542,109.127892 74.027870,109.037666 73.639366,109.025223 
	C69.226120,108.675941 65.180428,108.487663 61.187599,107.924515 
	C59.720398,107.717583 58.378208,106.624321 56.978996,105.935349 
z"/>
<path fill="#C53B00" opacity="1.000000" stroke="none" 
	d="
M59.425259,99.112701 
	C62.594082,99.248650 65.528809,99.938965 68.466011,99.949654 
	C91.047447,100.031830 113.629364,99.982079 136.692749,99.951744 
	C137.486053,99.968826 137.751938,100.100136 137.822586,100.874466 
	C135.480774,101.949554 133.290863,102.917992 131.095657,102.930138 
	C110.204109,103.045708 89.311478,103.043678 68.419678,102.952751 
	C65.148994,102.938522 61.880993,102.308250 58.611748,101.962845 
	C58.805271,101.092659 58.998791,100.222466 59.425259,99.112701 
z"/>
<path fill="#CE3F01" opacity="1.000000" stroke="none" 
	d="
M58.617722,101.996384 
	C61.880993,102.308250 65.148994,102.938522 68.419678,102.952751 
	C89.311478,103.043678 110.204109,103.045708 131.095657,102.930138 
	C133.290863,102.917992 135.480774,101.949554 137.902161,101.085960 
	C138.719894,101.943283 139.308594,103.139427 139.678558,104.673859 
	C139.459839,105.012131 139.005783,105.015831 139.005783,105.015831 
	C114.139664,105.010574 89.273323,105.046455 64.407860,104.916237 
	C62.563976,104.906586 60.726349,103.703346 58.752853,102.576462 
	C58.619884,102.097946 58.623695,102.029922 58.617722,101.996384 
z"/>
<path fill="#EA4A02" opacity="1.000000" stroke="none" 
	d="
M56.722511,106.178421 
	C58.378208,106.624321 59.720398,107.717583 61.187599,107.924515 
	C65.180428,108.487663 69.226120,108.675941 73.682793,109.039383 
	C73.734604,110.789062 73.354485,112.512138 72.852234,114.596840 
	C71.022964,114.305794 69.362793,113.312523 67.599197,113.069374 
	C63.582565,112.515579 59.515194,112.329803 55.023716,111.910751 
	C55.208008,110.025169 55.837021,108.223328 56.722511,106.178421 
z"/>
<path fill="#A02E01" opacity="1.000000" stroke="none" 
	d="
M93.066269,126.965706 
	C93.128067,129.003235 93.189865,131.040771 92.715843,133.523666 
	C88.494026,133.992950 84.808037,134.016861 81.122040,134.040771 
	C81.374031,131.955383 81.626030,129.869980 82.412003,127.395752 
	C86.319405,126.993187 89.692833,126.979446 93.066269,126.965706 
z"/>
<path fill="#EA4A01" opacity="1.000000" stroke="none" 
	d="
M142.772888,111.732666 
	C136.905212,112.374207 131.003815,112.691216 124.647896,113.011795 
	C124.001320,112.006859 123.809242,110.998360 124.037659,109.544403 
	C129.992676,108.722023 135.527206,108.345100 141.061737,107.968178 
	C141.620865,109.114830 142.180008,110.261490 142.772888,111.732666 
z"/>
<path fill="#681902" opacity="1.000000" stroke="none" 
	d="
M92.905022,82.006310 
	C92.994621,84.020317 93.084213,86.034325 93.192650,88.472015 
	C89.648682,88.472015 86.630821,88.472015 83.258873,88.472015 
	C83.258873,86.394150 83.258873,84.465591 84.010269,82.273239 
	C87.476112,82.008415 90.190567,82.007362 92.905022,82.006310 
z"/>
<path fill="#CF4000" opacity="1.000000" stroke="none" 
	d="
M81.048309,134.438049 
	C84.808037,134.016861 88.494026,133.992950 92.649986,133.955811 
	C93.181770,135.668594 93.243591,137.394592 93.213837,139.541901 
	C89.269592,139.713211 85.416924,139.463226 81.169403,139.033539 
	C80.841225,137.514343 80.907898,136.174835 81.048309,134.438049 
z"/>
<path fill="#6A1C02" opacity="1.000000" stroke="none" 
	d="
M113.993767,82.000244 
	C113.993767,84.119446 113.993767,86.238647 113.993767,88.242157 
	C105.453270,89.742996 104.122696,88.953537 104.561310,82.364670 
	C108.043900,81.982605 111.018837,81.991425 113.993767,82.000244 
z"/>
<path fill="#701C01" opacity="1.000000" stroke="none" 
	d="
M128.148087,76.674644 
	C129.417572,79.206497 130.687057,81.738358 131.530884,84.632156 
	C127.791283,85.011734 124.477348,85.029381 121.163422,85.047020 
	C121.132538,83.008553 121.101654,80.970078 121.516663,78.476326 
	C124.024406,77.572243 126.086243,77.123444 128.148087,76.674644 
z"/>
<path fill="#A12E01" opacity="1.000000" stroke="none" 
	d="
M76.123871,94.531410 
	C72.006424,94.990028 67.894760,95.037308 63.366833,94.734543 
	C62.629539,93.921234 62.308514,93.457954 61.987495,92.994682 
	C62.460522,91.748901 62.933552,90.503113 63.875931,89.335739 
	C68.217949,89.611763 72.090607,89.809380 75.963272,90.007004 
	C76.018738,91.378021 76.074196,92.749046 76.123871,94.531410 
z"/>
<path fill="#C73D01" opacity="1.000000" stroke="none" 
	d="
M104.274963,139.043777 
	C104.230766,137.653259 104.186562,136.262756 104.655182,134.447113 
	C108.830490,133.990677 112.492973,133.959351 116.155464,133.928040 
	C116.434425,135.376221 116.713387,136.824387 116.483307,138.639496 
	C112.074501,139.018860 108.174728,139.031326 104.274963,139.043777 
z"/>
<path fill="#531403" opacity="1.000000" stroke="none" 
	d="
M82.198349,123.081734 
	C82.704575,117.386360 86.091774,115.006958 91.238792,117.265244 
	C92.349037,117.752357 92.501953,120.421410 92.618477,122.530960 
	C88.826866,123.011589 85.512604,123.046661 82.198349,123.081734 
z"/>
<path fill="#C33B01" opacity="1.000000" stroke="none" 
	d="
M104.161179,72.354088 
	C107.243439,71.962433 110.233742,71.992332 113.683952,72.039459 
	C114.169678,73.767418 114.195503,75.478157 113.706650,77.598618 
	C110.216415,77.982513 107.240860,77.956696 104.265297,77.930878 
	C104.199936,76.212463 104.134583,74.494049 104.161179,72.354088 
z"/>
<path fill="#902701" opacity="1.000000" stroke="none" 
	d="
M76.017502,89.609344 
	C72.090607,89.809380 68.217949,89.611763 64.109161,89.094757 
	C64.029510,87.956810 64.185989,87.138260 65.052055,86.141342 
	C69.165466,85.977692 72.569298,85.992409 75.973114,86.007126 
	C76.005989,87.075317 76.038864,88.143501 76.017502,89.609344 
z"/>
<path fill="#4E0F01" opacity="1.000000" stroke="none" 
	d="
M104.140717,122.062988 
	C104.171127,119.782730 103.031746,116.621010 107.165398,117.029236 
	C110.239830,117.332855 115.007729,114.920624 114.535316,121.592438 
	C110.758842,122.020279 107.449776,122.041634 104.140717,122.062988 
z"/>
<path fill="#781F01" opacity="1.000000" stroke="none" 
	d="
M76.019470,85.592270 
	C72.569298,85.992409 69.165466,85.977692 65.287483,85.929688 
	C65.355309,84.408104 65.897293,82.919800 67.133148,81.207611 
	C70.540993,80.992134 73.254967,81.000557 75.968941,81.008980 
	C76.001228,82.398453 76.033524,83.787926 76.019470,85.592270 
z"/>
<path fill="#E04A07" opacity="1.000000" stroke="none" 
	d="
M74.482483,109.122208 
	C75.712898,108.751816 77.410332,108.059753 79.111923,108.049400 
	C93.428223,107.962257 107.745293,107.999954 122.531120,108.261536 
	C123.000374,108.697044 123.000633,108.871117 123.000900,109.045189 
	C106.984413,109.068970 90.967918,109.092751 74.482483,109.122208 
z"/>
<path fill="#9F2C01" opacity="1.000000" stroke="none" 
	d="
M93.000587,81.607819 
	C90.190567,82.007362 87.476112,82.008415 84.299072,81.995667 
	C83.555450,80.552895 83.274414,79.123917 83.510635,77.339523 
	C86.694107,76.995552 89.360329,77.007004 92.122955,77.252304 
	C92.510521,77.638702 92.801689,77.791252 93.092850,77.943810 
	C93.093948,79.032318 93.095047,80.120819 93.000587,81.607819 
z"/>
<path fill="#8C2601" opacity="1.000000" stroke="none" 
	d="
M121.115005,85.456116 
	C124.477348,85.029381 127.791283,85.011734 131.563660,84.992996 
	C132.347870,85.774818 132.673645,86.557739 132.642670,87.825432 
	C128.578568,88.866707 124.871239,89.423210 121.163902,89.979713 
	C121.131462,88.608215 121.099022,87.236710 121.115005,85.456116 
z"/>
<path fill="#AE3402" opacity="1.000000" stroke="none" 
	d="
M116.175133,133.536377 
	C112.492973,133.959351 108.830490,133.990677 104.727730,134.034454 
	C104.216637,132.976212 104.145821,131.905533 104.480957,130.470459 
	C108.533813,130.081573 112.180702,130.057068 115.827599,130.032578 
	C115.950005,131.069962 116.072403,132.107361 116.175133,133.536377 
z"/>
<path fill="#761E01" opacity="1.000000" stroke="none" 
	d="
M82.139099,123.471535 
	C85.512604,123.046661 88.826866,123.011589 92.604263,122.966080 
	C93.092072,124.026611 93.116745,125.097580 93.103836,126.567123 
	C89.692833,126.979446 86.319405,126.993187 82.490509,127.011871 
	C82.049980,125.964981 82.064911,124.913162 82.139099,123.471535 
z"/>
<path fill="#511101" opacity="1.000000" stroke="none" 
	d="
M128.124695,76.297928 
	C126.086243,77.123444 124.024406,77.572243 121.550201,78.040771 
	C121.137833,76.279564 121.137833,74.498634 121.137833,72.484383 
	C124.680901,71.747444 127.763977,70.998268 128.124695,76.297928 
z"/>
<path fill="#C23A01" opacity="1.000000" stroke="none" 
	d="
M92.026543,77.018448 
	C89.360329,77.007004 86.694107,76.995552 83.589218,76.972275 
	C83.095100,75.894661 83.039650,74.828857 83.509140,73.375702 
	C87.063377,73.001968 90.092690,73.015594 93.121994,73.029221 
	C93.148018,74.105354 93.174034,75.181496 92.869583,76.622269 
	C92.368256,76.997414 92.197403,77.007927 92.026543,77.018448 
z"/>
<path fill="#9D2C01" opacity="1.000000" stroke="none" 
	d="
M104.174957,78.322136 
	C107.240860,77.956696 110.216415,77.982513 113.650787,78.024673 
	C114.122978,79.099884 114.136345,80.158760 114.071739,81.608940 
	C111.018837,81.991425 108.043900,81.982605 104.633820,81.940147 
	C104.160660,80.842140 104.122643,79.777763 104.174957,78.322136 
z"/>
<path fill="#E94901" opacity="1.000000" stroke="none" 
	d="
M104.208107,139.413315 
	C108.174728,139.031326 112.074501,139.018860 116.426483,139.015259 
	C116.984840,139.764725 117.090981,140.505325 117.149017,141.617889 
	C113.125420,141.996262 109.149925,142.002701 104.730103,142.013779 
	C104.237595,141.273239 104.189423,140.528046 104.208107,139.413315 
z"/>
<path fill="#A12E00" opacity="1.000000" stroke="none" 
	d="
M124.003052,94.000000 
	C123.311928,94.007912 122.620811,94.015823 121.585625,94.032898 
	C121.181732,93.282883 121.121895,92.523705 121.529724,91.384293 
	C126.075691,90.972008 130.154007,90.939972 134.232315,90.907936 
	C134.522049,91.717133 134.811783,92.526321 134.582733,93.668930 
	C130.710312,94.001572 127.356682,94.000786 124.003052,94.000000 
z"/>
<path fill="#DF4501" opacity="1.000000" stroke="none" 
	d="
M123.086884,109.149551 
	C123.000633,108.871117 123.000374,108.697044 122.999741,108.261871 
	C126.602211,107.667282 130.214249,107.408554 133.803879,106.967461 
	C135.497208,106.759392 137.147552,106.201416 138.911575,105.408905 
	C139.005783,105.015831 139.459839,105.012131 139.686813,105.010864 
	C140.284210,105.780212 140.654648,106.550812 141.043396,107.644798 
	C135.527206,108.345100 129.992676,108.722023 123.950500,109.168663 
	C123.442848,109.238380 123.172867,109.253906 123.086884,109.149551 
z"/>
<path fill="#631701" opacity="1.000000" stroke="none" 
	d="
M76.003418,80.609573 
	C73.254967,81.000557 70.540993,80.992134 67.369003,80.967636 
	C67.405685,79.426476 67.900375,77.901390 69.016342,76.320290 
	C71.751999,76.511612 73.866371,76.758949 75.980751,77.006294 
	C75.999802,78.074257 76.018852,79.142212 76.003418,80.609573 
z"/>
<path fill="#6D1B01" opacity="1.000000" stroke="none" 
	d="
M104.107422,122.436340 
	C107.449776,122.041634 110.758842,122.020279 114.522156,122.006027 
	C115.005051,122.765785 115.033684,123.518433 114.552567,124.636955 
	C110.770317,125.018517 107.497803,125.034218 104.225296,125.049911 
	C104.174904,124.303177 104.124519,123.556435 104.107422,122.436340 
z"/>
<path fill="#511101" opacity="1.000000" stroke="none" 
	d="
M76.003784,76.582260 
	C73.866371,76.758949 71.751999,76.511612 69.272156,76.093170 
	C69.362297,73.405396 70.518661,71.208183 73.367935,72.142029 
	C74.564461,72.534187 75.158745,74.763885 76.003784,76.582260 
z"/>
<path fill="#842301" opacity="1.000000" stroke="none" 
	d="
M104.173340,125.380295 
	C107.497803,125.034218 110.770317,125.018517 114.492973,125.009460 
	C114.951637,125.769943 114.960159,126.523788 114.485992,127.640991 
	C110.739311,127.683640 107.475311,127.362930 104.211319,127.042221 
	C104.181335,126.598373 104.151360,126.154526 104.173340,125.380295 
z"/>
<path fill="#9B2E02" opacity="1.000000" stroke="none" 
	d="
M134.187271,90.582748 
	C130.154007,90.939972 126.075691,90.972008 121.591064,91.006439 
	C121.152710,90.837959 121.120667,90.667091 121.126266,90.237961 
	C124.871239,89.423210 128.578568,88.866707 132.661652,88.145004 
	C133.405685,88.739067 133.773956,89.498306 134.187271,90.582748 
z"/>
<path fill="#DD4401" opacity="1.000000" stroke="none" 
	d="
M93.193207,72.655411 
	C90.092690,73.015594 87.063377,73.001968 83.588264,72.982094 
	C83.089775,72.222832 83.037086,71.469810 83.068642,70.347359 
	C86.165253,69.987488 89.177620,69.997040 92.648987,70.013535 
	C93.160118,70.774185 93.212265,71.527893 93.193207,72.655411 
z"/>
<path fill="#992B01" opacity="1.000000" stroke="none" 
	d="
M104.141075,127.412178 
	C107.475311,127.362930 110.739311,127.683640 114.435013,128.014740 
	C115.171043,128.505112 115.475372,128.985092 115.803650,129.748840 
	C112.180702,130.057068 108.533813,130.081573 104.525421,130.069214 
	C104.132896,129.282272 104.101860,128.532211 104.141075,127.412178 
z"/>
<path fill="#9B2E02" opacity="1.000000" stroke="none" 
	d="
M124.091080,94.389687 
	C127.356682,94.000786 130.710312,94.001572 134.519943,94.000336 
	C134.975937,93.998322 135.052231,94.416466 135.061081,94.628662 
	C131.439651,94.820366 127.809380,94.799873 124.091080,94.389687 
z"/>
<path fill="#9B2E02" opacity="1.000000" stroke="none" 
	d="
M61.768452,93.187393 
	C62.308514,93.457954 62.629539,93.921234 62.971687,94.679611 
	C62.590591,94.989937 62.188374,95.005165 61.484978,95.031502 
	C61.305672,94.488441 61.427544,93.934273 61.768452,93.187393 
z"/>
<path fill="#681902" opacity="1.000000" stroke="none" 
	d="
M92.122955,77.252304 
	C92.197403,77.007927 92.368256,76.997414 92.793953,77.020416 
	C93.048798,77.053932 93.104897,77.497612 93.098877,77.720711 
	C92.801689,77.791252 92.510521,77.638702 92.122955,77.252304 
z"/>
</svg>